<?xml version="1.0" encoding="iso-8859-1"?>

<!DOCTYPE svg PUBLIC "-//W3C//DTD SVG 1.1//EN" "http://www.w3.org/Graphics/SVG/1.1/DTD/svg11.dtd">
<!-- Uploaded to: SVG Repo, www.svgrepo.com, Generator: SVG Repo Mixer Tools -->
<svg height="800px" width="800px" version="1.1" id="_x35_" xmlns="http://www.w3.org/2000/svg" xmlns:xlink="http://www.w3.org/1999/xlink" 
	 viewBox="0 0 512 512"  xml:space="preserve">
<g>
	<polygon style="fill:#65829A;" points="214.855,301.532 83.164,301.532 157.816,149.057 249.649,149.057 	"/>
	<polygon style="fill:#55768D;" points="305.834,301.532 174.143,301.532 208.937,149.057 340.628,149.057 	"/>
	<polygon style="fill:#F6BD4C;" points="512,301.552 325.734,301.552 311.526,276.674 256.435,180.235 248.896,152.226 
		248.084,149.036 208.071,0 256.725,12.41 263.452,14.15 295.347,51.032 	"/>
	<polygon style="fill:#F9CF9B;" points="208.071,0 208.071,149.036 131.697,301.552 0,301.552 4.233,295.405 	"/>
	<polygon style="fill:#F8CC7B;" points="208.059,0.014 388.142,301.532 214.855,301.532 208.059,149.043 	"/>
	<polygon style="fill:#FFFFFF;" points="131.675,301.532 98.76,301.532 208.059,149.043 	"/>
	<polygon style="fill:#FFFFFF;" points="214.855,301.532 247.775,301.532 208.059,149.043 	"/>
</g>
</svg>