<?xml version="1.0" encoding="iso-8859-1"?>
<!-- Uploaded to: SVG Repo, www.svgrepo.com, Generator: SVG Repo Mixer Tools -->
<svg version="1.1" id="Layer_1" xmlns="http://www.w3.org/2000/svg" xmlns:xlink="http://www.w3.org/1999/xlink" 
	 viewBox="0 0 512.001 512.001" xml:space="preserve">
<g>
	<path style="fill:#CEE8FA;" d="M321.165,388.557H190.837v-38.206c0-35.989,29.174-65.165,65.165-65.165l0,0
		c35.989,0,65.165,29.174,65.165,65.165v38.206H321.165z"/>
	<circle style="fill:#CEE8FA;" cx="256.001" cy="79.508" r="65.159"/>
	<rect x="213.787" y="388.558" style="fill:#CEE8FA;" width="84.418" height="109.096"/>
</g>
<path style="fill:#2D527C;" d="M389.664,101.63h-22.218c-7.924,0-14.349,6.424-14.349,14.349s6.426,14.349,14.349,14.349h36.567
	c7.924,0,14.349-6.424,14.349-14.349V98.043h27.741c7.924,0,14.349-6.424,14.349-14.349s-6.426-14.349-14.349-14.349h-27.741V51.408
	c0-7.925-6.425-14.349-14.349-14.349h-80.831C309.071,14.811,284.24,0,256,0c-28.24,0-53.071,14.811-67.181,37.059h-80.83
	c-7.924,0-14.349,6.424-14.349,14.349v17.936H65.898c-7.924,0-14.349,6.424-14.349,14.349s6.426,14.349,14.349,14.349H93.64v17.936
	c0,7.925,6.425,14.349,14.349,14.349h36.566c7.924,0,14.349-6.424,14.349-14.349s-6.425-14.349-14.349-14.349h-22.217V65.757h55.363
	c-0.783,4.471-1.215,9.063-1.215,13.755c0,16.984,5.371,32.729,14.477,45.662c-48.48,29.912-78.524,83.6-78.524,140.642v158.616
	h-40.72c-7.924,0-14.349,6.424-14.349,14.349c0,7.925,6.426,14.349,14.349,14.349h55.069h5.823h66.831v44.522
	c0,7.925,6.425,14.349,14.349,14.349h84.418c7.924,0,14.349-6.424,14.349-14.349V453.13h66.831h5.823h55.069
	c7.924,0,14.349-6.424,14.349-14.349c0-7.925-6.426-14.349-14.349-14.349h-40.72V265.816c0-33.043-9.766-64.993-28.242-92.395
	c-4.43-6.57-13.347-8.305-19.919-3.876c-6.57,4.43-8.305,13.349-3.874,19.919c15.267,22.644,23.337,49.046,23.337,76.351v158.616
	h-58.304v-21.525h8.607c7.924,0,14.349-6.424,14.349-14.349v-38.204c0-43.844-35.669-79.514-79.514-79.514
	s-79.514,35.669-79.514,79.514v38.204c0,7.925,6.426,14.349,14.349,14.349h8.607v21.525h-58.305V265.816
	c0-47.691,25.404-92.56,66.298-117.097l4.788-2.873c12.564,8.32,27.61,13.181,43.776,13.181c43.845,0,79.514-35.669,79.514-79.514
	c0-4.694-0.432-9.284-1.215-13.755h55.364v35.871H389.664z M205.184,350.352c0-28.019,22.796-50.816,50.816-50.816
	s50.816,22.795,50.816,50.816v23.855h-8.607h-84.418h-8.607V350.352z M283.86,402.907v80.396h-55.72v-80.396H283.86z M256,130.328
	c-28.019,0-50.816-22.795-50.816-50.816S227.981,28.698,256,28.698s50.816,22.795,50.816,50.816S284.021,130.328,256,130.328z"/>
</svg>